<svg width="176" height="150" viewBox="0 0 176 150" fill="none" xmlns="http://www.w3.org/2000/svg">
<path d="M72.7221 19.9999C66.8554 30.1753 60.1739 42.1052 57.7295 46.3157L53.4925 53.8595L40.6184 40.5263C33.4481 32.8069 23.5072 24.7368 17.8036 21.4035L7.69986 15.614L11.611 24.9122C24.1592 54.7368 23.6703 83.3332 9.65542 114.035C6.2332 121.228 3.29986 127.895 2.97394 128.596C2.64801 129.298 7.21097 129.825 13.4036 129.474L24.3221 128.947L27.4184 119.298C31.8184 105.614 33.7739 95.614 34.9147 81.5789L36.0554 69.2982L44.0406 81.228C51.6999 92.8069 52.0258 92.9824 55.1221 89.9999C56.9147 88.2456 60.9888 83.1578 64.085 78.421C67.1814 73.8595 70.1147 70.3509 70.6036 70.8772C71.4184 71.7543 67.9961 128.772 66.8554 134.385C66.2036 137.368 67.6703 139.299 74.3517 143.859C78.9147 147.017 83.1517 149.122 83.6406 148.421C85.2703 146.667 86.085 17.7193 84.6184 9.12275L83.3147 1.40344L72.7221 19.9999Z" fill="#37AF91"/>
<path d="M90.6484 74.9123C90.6484 115.79 91.3002 149.122 91.9521 149.122C92.604 149.122 96.8409 146.667 101.078 143.684L108.9 138.421L108.085 130.175C106.13 113.158 104.989 69.2982 106.456 71.0527C107.271 71.9298 111.508 77.7192 115.908 83.8596L123.567 95.0877L131.552 82.2807C136.441 74.386 139.7 70.5264 140.189 72.1053C140.515 73.5087 141.329 80.1754 141.818 87.1929C142.471 98.9474 148.011 124.561 150.618 129.298C151.271 130.526 156.649 131.93 162.515 132.632L173.271 133.684L167.241 120.526C158.278 100.702 155.182 84.5614 156.16 61.7544C156.811 46.4912 157.952 40.1754 162.027 28.5965C166.915 14.5614 166.915 14.035 163.493 15.9649C153.715 21.4035 138.722 34.5614 131.389 44.035L123.404 54.386L119.493 47.8948C108.085 27.8948 96.8409 9.12282 93.9076 5.26316L90.6484 0.877197V74.9123Z" fill="#37AF91"/>
</svg>
