<svg width="150" height="150" viewBox="0 0 150 150" fill="none" xmlns="http://www.w3.org/2000/svg">
<g clip-path="url(#clip0_5_9389)">
<path d="M41.1333 188.809H30.3514V179.888C30.3514 167.961 33.8333 157.658 40.4211 150.088C46.8636 142.685 55.7757 138.609 65.5151 138.609V149.394C51.1605 149.394 41.1333 161.933 41.1333 179.888V188.809Z" fill="#02A287"/>
<path d="M108.866 188.809H119.648V179.888C119.648 167.961 116.166 157.658 109.579 150.088C103.136 142.685 94.224 138.609 84.4846 138.609V149.394C98.8392 149.394 108.866 161.933 108.866 179.888V188.809Z" fill="#02A287"/>
<path d="M95.6576 144.642V182.685H54.3424V144.642C54.3424 139.867 61.2848 136 66.0576 136H83.9363C88.7151 136 95.6576 139.867 95.6576 144.642Z" fill="#02A287"/>
<path d="M63.8544 139.309H86.1423C88.4702 139.309 90.3574 137.422 90.3574 135.094V135.091C90.3574 132.763 88.4702 130.876 86.1423 130.876H63.8544C61.5264 130.876 59.6392 132.763 59.6392 135.091V135.094C59.6392 137.422 61.5264 139.309 63.8544 139.309Z" fill="#02A287"/>
<path d="M100.951 87.9061C104.654 88.545 108.459 87.6925 111.534 85.5348C114.61 83.3771 116.707 80.0897 117.367 76.391L119.857 62.2213C120.497 58.5187 119.645 54.7135 117.487 51.6375C115.329 48.5615 112.041 46.4649 108.342 45.8061C104.64 45.1664 100.835 46.0186 97.7585 48.1764C94.6825 50.3342 92.586 53.6221 91.9271 57.3213L89.4362 71.491C88.7965 75.1935 89.6487 78.9987 91.8065 82.0747C93.9643 85.1507 97.2522 87.2473 100.951 87.9061Z" fill="#02A287"/>
<path d="M52.6848 88.1001C56.4172 87.6794 59.8316 85.7988 62.1821 82.8691C64.5327 79.9394 65.6285 76.1986 65.2302 72.4637L63.6605 58.1637C63.239 54.4316 61.3583 51.0177 58.4288 48.6673C55.4993 46.3169 51.7589 45.2208 48.0242 45.6182C44.292 46.0397 40.8782 47.9205 38.5278 50.85C36.1773 53.7795 35.0812 57.5198 35.4787 61.2546L37.0484 75.5546C37.4676 79.2877 39.3477 82.703 42.2778 85.0539C45.2079 87.4048 48.9495 88.5 52.6848 88.1001Z" fill="#02A287"/>
<path d="M87.4118 96.0849H87.4148C103.602 96.0849 116.724 82.9627 116.724 66.7758V43.6152C116.724 27.4282 103.602 14.3061 87.4148 14.3061H87.4118C71.2248 14.3061 58.1027 27.4282 58.1027 43.6152V66.7758C58.1027 82.9627 71.2248 96.0849 87.4118 96.0849Z" fill="#02A287"/>
<path d="M74.9998 127.739C94.9574 127.739 111.285 111.412 111.285 91.4576V74.1849C111.285 54.2273 94.9574 39.2637 74.9998 39.2637C55.0422 39.2637 38.715 54.2273 38.715 74.1849V91.4576C38.715 111.412 55.0422 127.739 74.9998 127.739Z" fill="white"/>
<path d="M117.701 98.4519C121.76 94.9079 122.178 88.7439 118.634 84.6843C115.09 80.6246 108.926 80.2065 104.867 83.7505C100.807 87.2945 100.389 93.4585 103.933 97.5182C107.477 101.578 113.641 101.996 117.701 98.4519Z" fill="white"/>
<path d="M47.5852 95.183C49.8328 90.2852 47.6844 84.4926 42.7865 82.245C37.8886 79.9974 32.096 82.1459 29.8484 87.0438C27.6008 91.9416 29.7493 97.7342 34.6472 99.9818C39.5451 102.229 45.3376 100.081 47.5852 95.183Z" fill="white"/>
<path d="M72.3485 72.4243C57.8364 72.4243 44.7515 66.1516 35.3788 54.6607C33.9516 52.9115 32.8828 50.8983 32.2336 48.7361C31.5844 46.5739 31.3674 44.305 31.5951 42.059C31.8227 39.8129 32.4905 37.6337 33.5604 35.6457C34.6302 33.6578 36.0811 31.9 37.8303 30.4728C39.5795 29.0455 41.5926 27.9768 43.7548 27.3276C45.917 26.6784 48.1859 26.4614 50.432 26.6891C52.678 26.9167 54.8572 27.5845 56.8452 28.6543C58.8332 29.7242 60.591 31.1751 62.0182 32.9243C64.9182 36.4788 68.4333 38.1697 72.7879 38.0334C78.4182 37.8849 82.8576 34.8606 83.7606 33.6243C85.0852 31.7821 86.7614 30.2204 88.6925 29.0291C90.6236 27.8379 92.7714 27.0407 95.0121 26.6836C97.2527 26.3265 99.5419 26.4164 101.748 26.9483C103.953 27.4801 106.032 28.4434 107.864 29.7825C109.695 31.1216 111.244 32.8101 112.42 34.7505C113.596 36.6909 114.376 38.845 114.715 41.0884C115.055 43.3318 114.947 45.6202 114.398 47.8217C113.848 50.0232 112.869 52.0942 111.515 53.9152C103.597 64.7516 88.7545 72.0091 73.697 72.4C73.2485 72.4243 72.797 72.4243 72.3485 72.4243Z" fill="#02A287"/>
<path d="M96.7914 93.6943C98.737 91.7488 98.737 88.5944 96.7914 86.6489C94.8459 84.7034 91.6916 84.7034 89.7461 86.6489C87.8005 88.5944 87.8005 91.7488 89.7461 93.6943C91.6916 95.6398 94.8459 95.6398 96.7914 93.6943Z" fill="#02A287"/>
<path d="M57.8703 95.0211C60.5481 94.389 62.2065 91.7059 61.5745 89.0281C60.9425 86.3503 58.2593 84.6918 55.5815 85.3239C52.9037 85.9559 51.2453 88.639 51.8773 91.3168C52.5093 93.9946 55.1925 95.6531 57.8703 95.0211Z" fill="#02A287"/>
<path d="M87.1998 102.991H62.7998C62.7998 102.991 66.721 113.067 74.9998 113.067C83.2786 113.067 87.1998 102.991 87.1998 102.991Z" fill="#02A287"/>
<path d="M90.9088 81.4213L95.6572 81.7485C96.1752 81.7827 96.6856 81.6108 97.0773 81.2702C97.4689 80.9296 97.7101 80.448 97.7482 79.9304C97.7823 79.4124 97.6104 78.902 97.2698 78.5103C96.9292 78.1187 96.4476 77.8775 95.93 77.8395L91.1845 77.5092C90.6668 77.4758 90.1568 77.648 89.7653 77.9884C89.3738 78.3289 89.1324 78.81 89.0936 79.3273C89.0586 79.8453 89.2297 80.356 89.5697 80.7483C89.9098 81.1406 90.3911 81.3825 90.9088 81.4213Z" fill="#02A287"/>
<path d="M59.0909 81.4213L54.3424 81.7485C53.8245 81.7827 53.314 81.6108 52.9224 81.2702C52.5307 80.9296 52.2895 80.448 52.2515 79.9304C52.2173 79.4124 52.3892 78.902 52.7298 78.5103C53.0704 78.1187 53.552 77.8775 54.0696 77.8395L58.8151 77.5092C59.3328 77.4758 59.8428 77.648 60.2343 77.9884C60.6258 78.3289 60.8672 78.81 60.906 79.3273C60.9411 79.8453 60.7699 80.356 60.4299 80.7483C60.0898 81.1406 59.6085 81.3825 59.0909 81.4213Z" fill="#02A287"/>
<path d="M76.7544 142.679H73.2453C71.6749 142.679 70.1689 142.055 69.0584 140.945C67.948 139.834 67.3241 138.328 67.3241 136.758V122.745H82.6757V136.748C82.6768 137.527 82.5246 138.298 82.2275 139.017C81.9305 139.737 81.4945 140.391 80.9446 140.941C80.3946 141.492 79.7415 141.929 79.0225 142.227C78.3035 142.525 77.5328 142.679 76.7544 142.679Z" fill="white"/>
<path d="M48.318 196.782V150.194C48.318 135.503 67.3241 134.133 67.3241 134.133L67.1028 196.788L48.318 196.782Z" fill="#02A287"/>
<path d="M101.682 196.782V150.194C101.682 135.503 82.6757 134.133 82.6757 134.133L82.8969 196.788L101.682 196.782Z" fill="#02A287"/>
</g>
<defs>
<clipPath id="clip0_5_9389">
<rect width="150" height="150" fill="white"/>
</clipPath>
</defs>
</svg>
