<svg width="20" height="17" viewBox="0 0 20 17" fill="none" xmlns="http://www.w3.org/2000/svg">
<path d="M8.26373 3.13328C7.59706 4.21866 6.8378 5.49118 6.56002 5.9403L6.07855 6.74498L4.61558 5.32276C3.80077 4.49936 2.67113 3.63855 2.02299 3.283L0.87484 2.66545L1.31928 3.65726C2.74522 6.83855 2.68966 9.88884 1.09706 13.1637C0.708173 13.9309 0.37484 14.6421 0.337803 14.7169C0.300766 14.7918 0.819285 14.8479 1.52299 14.8105L2.76373 14.7543L3.11558 13.7251C3.61558 12.2655 3.8378 11.1988 3.96744 9.70171L4.09706 8.39177L5.00447 9.66427C5.87484 10.8994 5.91188 10.9181 6.26373 10.6C6.46744 10.4128 6.9304 9.87013 7.28224 9.36486C7.63411 8.87831 7.96744 8.50405 8.02299 8.56019C8.11558 8.65375 7.72669 14.7356 7.59706 15.3344C7.52299 15.6526 7.68966 15.8585 8.44891 16.3449C8.96744 16.6818 9.44891 16.9063 9.50447 16.8315C9.68966 16.6444 9.78224 2.89001 9.61558 1.97305L9.46744 1.14966L8.26373 3.13328Z" fill="#199890"/>
<path d="M10.3008 8.99058C10.3008 13.3508 10.3749 16.9063 10.4489 16.9063C10.523 16.9063 11.0045 16.6444 11.486 16.3263L12.3749 15.7649L12.2823 14.8853C12.06 13.0701 11.9304 8.39175 12.0971 8.57889C12.1897 8.67245 12.6711 9.28999 13.1711 9.94497L14.0415 11.1426L14.9489 9.77655C15.5044 8.93444 15.8749 8.52275 15.9304 8.69117C15.9675 8.84087 16.06 9.55198 16.1155 10.3005C16.1897 11.5543 16.8193 14.2865 17.1155 14.7917C17.1897 14.9227 17.8008 15.0725 18.4675 15.1473L19.6897 15.2596L19.0044 13.8561C17.986 11.7415 17.6342 10.0198 17.7453 7.58707C17.8193 5.959 17.9489 5.28532 18.4119 4.05023C18.9675 2.55315 18.9675 2.49701 18.5786 2.70286C17.4675 3.28297 15.7637 4.68648 14.9304 5.69701L14.023 6.80111L13.5786 6.10871C12.2823 3.97538 11.0045 1.97304 10.6711 1.56134L10.3008 1.09351V8.99058Z" fill="#199890"/>
</svg>
