<svg width="150" height="150" viewBox="0 0 150 150" fill="none" xmlns="http://www.w3.org/2000/svg">
<g clip-path="url(#clip0_5_9384)">
<path d="M82.1485 117.636H66.7819V145.879H82.1485V117.636Z" fill="#02A287"/>
<path d="M68.2516 133.397H80.5304C82.7301 133.397 84.8397 134.271 86.3951 135.826C87.9505 137.382 88.8243 139.491 88.8243 141.691V160.509H59.9576V141.691C59.9576 139.491 60.8315 137.382 62.3869 135.826C63.9423 134.271 66.0519 133.397 68.2516 133.397Z" fill="#02A287"/>
<path d="M101.711 83.3875C116.872 68.2269 116.872 43.6466 101.711 28.486C86.5504 13.3254 61.9701 13.3254 46.8095 28.486C31.6489 43.6467 31.6489 68.2269 46.8095 83.3875C61.9701 98.5481 86.5504 98.5481 101.711 83.3875Z" fill="#02A287"/>
<path d="M44.3241 72.5983C46.1554 69.3483 45.0053 65.2291 41.7553 63.3978C38.5053 61.5665 34.3861 62.7166 32.5548 65.9666C30.7236 69.2166 31.8737 73.3358 35.1237 75.1671C38.3737 76.9984 42.4929 75.8483 44.3241 72.5983Z" fill="#02A287"/>
<path d="M36.6304 62.522C40.3469 62.1995 43.0982 58.9252 42.7757 55.2087C42.4531 51.4923 39.1789 48.741 35.4624 49.0635C31.7459 49.386 28.9946 52.6603 29.3172 56.3767C29.6397 60.0932 32.9139 62.8445 36.6304 62.522Z" fill="#02A287"/>
<path d="M43.1641 47.755C45.9957 45.3264 46.3223 41.0621 43.8937 38.2305C41.465 35.399 37.2008 35.0724 34.3692 37.501C31.5376 39.9297 31.211 44.1939 33.6397 47.0255C36.0683 49.8571 40.3326 50.1837 43.1641 47.755Z" fill="#02A287"/>
<path d="M45.5 37.9121C49.2305 37.9121 52.2546 34.888 52.2546 31.1576C52.2546 27.4272 49.2305 24.403 45.5 24.403C41.7696 24.403 38.7455 27.4272 38.7455 31.1576C38.7455 34.888 41.7696 37.9121 45.5 37.9121Z" fill="#02A287"/>
<path d="M60.7095 26.66C63.1213 23.8141 62.7694 19.5518 59.9234 17.14C57.0775 14.7282 52.8153 15.0801 50.4035 17.926C47.9917 20.772 48.3436 25.0342 51.1895 27.446C54.0354 29.8578 58.2977 29.5059 60.7095 26.66Z" fill="#02A287"/>
<path d="M75.0033 17.0424C75.0784 18.376 74.7565 19.7018 74.0782 20.8524C73.3999 22.003 72.3957 22.9267 71.1926 23.5067C69.9895 24.0867 68.6414 24.297 67.3188 24.111C65.9961 23.925 64.7584 23.351 63.7619 22.4617C62.7654 21.5723 62.0549 20.4075 61.7203 19.1145C61.3857 17.8214 61.4419 16.4582 61.8819 15.1971C62.3219 13.936 63.1259 12.8337 64.1923 12.0295C65.2587 11.2252 66.5395 10.7552 67.873 10.6788C68.7591 10.628 69.6465 10.7524 70.4846 11.0448C71.3226 11.3372 72.0948 11.7919 72.757 12.3829C73.4192 12.9738 73.9584 13.6896 74.3439 14.4891C74.7293 15.2886 74.9534 16.1563 75.0033 17.0424Z" fill="#02A287"/>
<path d="M88.557 17.8703C88.6429 14.1409 85.6893 11.0479 81.9598 10.9619C78.2304 10.876 75.1374 13.8297 75.0515 17.5591C74.9655 21.2885 77.9192 24.3815 81.6486 24.4675C85.3781 24.5534 88.4711 21.5997 88.557 17.8703Z" fill="#02A287"/>
<path d="M100.171 26.3539C102.198 23.2221 101.302 19.0402 98.1703 17.0134C95.0385 14.9866 90.8566 15.8823 88.8298 19.0141C86.803 22.1459 87.6987 26.3278 90.8305 28.3546C93.9623 30.3814 98.1442 29.4857 100.171 26.3539Z" fill="#02A287"/>
<path d="M111.343 33.4608C112.57 29.9379 110.709 26.0875 107.186 24.8606C103.663 23.6338 99.8123 25.4952 98.5855 29.0181C97.3587 32.5411 99.22 36.3915 102.743 37.6183C106.266 38.8451 110.116 36.9837 111.343 33.4608Z" fill="#02A287"/>
<path d="M117.34 46.6795C119.484 43.6267 118.747 39.4139 115.694 37.27C112.641 35.126 108.429 35.8628 106.285 38.9156C104.141 41.9684 104.877 46.1812 107.93 48.3251C110.983 50.4691 115.196 49.7323 117.34 46.6795Z" fill="#02A287"/>
<path d="M114.645 62.9212C118.374 62.8053 121.302 59.6887 121.186 55.9601C121.071 52.2314 117.954 49.3027 114.225 49.4186C110.497 49.5345 107.568 52.6511 107.684 56.3797C107.8 60.1083 110.916 63.037 114.645 62.9212Z" fill="#02A287"/>
<path d="M117.173 68.803C117.248 70.1364 116.926 71.4622 116.248 72.6127C115.57 73.7632 114.566 74.6868 113.363 75.2669C112.16 75.8469 110.812 76.0574 109.489 75.8716C108.167 75.6858 106.929 75.1121 105.932 74.2231C104.936 73.334 104.225 72.1695 103.89 70.8767C103.555 69.5839 103.611 68.2208 104.051 66.9597C104.49 65.6986 105.294 64.5961 106.36 63.7915C107.426 62.9869 108.706 62.5164 110.04 62.4394C110.926 62.3886 111.813 62.513 112.652 62.8053C113.49 63.0977 114.262 63.5523 114.925 64.1433C115.587 64.7343 116.127 65.4499 116.512 66.2495C116.898 67.049 117.123 67.9167 117.173 68.803Z" fill="#02A287"/>
<path d="M40.0545 86.0686C45.1294 85.2449 48.5755 80.4631 47.7518 75.3883C46.928 70.3134 42.1462 66.8672 37.0714 67.691C31.9965 68.5148 28.5504 73.2965 29.3741 78.3714C30.1979 83.4462 34.9797 86.8924 40.0545 86.0686Z" fill="#02A287"/>
<path d="M116.484 83.4633C120.119 79.8279 120.119 73.9337 116.484 70.2983C112.848 66.6628 106.954 66.6628 103.319 70.2983C99.6834 73.9337 99.6834 79.8279 103.319 83.4633C106.954 87.0987 112.848 87.0987 116.484 83.4633Z" fill="#02A287"/>
<path d="M75.4003 34.606H72.8064C53.9802 34.606 38.7185 49.8677 38.7185 68.6939V90.1757C38.7185 109.002 53.9802 124.264 72.8064 124.264H75.4003C94.2265 124.264 109.488 109.002 109.488 90.1757V68.6939C109.488 49.8677 94.2265 34.606 75.4003 34.606Z" fill="white"/>
<path d="M82.1484 133.395L74.4645 125.711L66.7806 133.395L74.4645 141.079L82.1484 133.395Z" fill="#02A287"/>
<path d="M74.1032 46.4909C84.5849 46.4909 93.082 43.0774 93.082 38.8667C93.082 34.6559 84.5849 31.2424 74.1032 31.2424C63.6215 31.2424 55.1244 34.6559 55.1244 38.8667C55.1244 43.0774 63.6215 46.4909 74.1032 46.4909Z" fill="#02A287"/>
<path d="M60.8424 73.3697C60.843 74.1425 60.6144 74.8981 60.1854 75.5409C59.7564 76.1837 59.1464 76.6849 58.4325 76.9809C57.7187 77.2769 56.933 77.3545 56.175 77.2039C55.4171 77.0533 54.7208 76.6812 54.1743 76.1347C53.6279 75.5883 53.2558 74.892 53.1052 74.134C52.9546 73.376 53.0322 72.5904 53.3282 71.8765C53.6242 71.1627 54.1253 70.5527 54.7681 70.1237C55.4109 69.6947 56.1666 69.4661 56.9394 69.4667C57.9745 69.4667 58.9673 69.8779 59.6992 70.6098C60.4312 71.3418 60.8424 72.3345 60.8424 73.3697Z" fill="#02A287"/>
<path d="M94.2849 73.3697C94.2855 74.1424 94.0569 74.8979 93.6281 75.5406C93.1992 76.1834 92.5894 76.6845 91.8757 76.9806C91.162 77.2767 90.3766 77.3545 89.6187 77.2041C88.8608 77.0537 88.1645 76.6819 87.6179 76.1358C87.0713 75.5896 86.699 74.8937 86.5481 74.1359C86.3971 73.3781 86.4743 72.5926 86.7698 71.8786C87.0654 71.1647 87.566 70.5545 88.2084 70.1252C88.8508 69.6958 89.6062 69.4667 90.3788 69.4667C90.8916 69.4663 91.3995 69.5669 91.8734 69.7629C92.3473 69.9589 92.7779 70.2463 93.1407 70.6088C93.5034 70.9712 93.7912 71.4016 93.9875 71.8754C94.1838 72.3491 94.2849 72.8569 94.2849 73.3697Z" fill="#02A287"/>
<path d="M60.1305 86.1909C69.6032 103.161 78.9184 103.752 88.0729 86.1909H60.1305Z" fill="#02A287"/>
<path d="M55.9214 178.042H48.5396V153.603C48.5396 141.809 55.9153 133.573 66.479 133.573V140.955C59.185 140.955 55.9214 147.318 55.9214 153.603V178.042Z" fill="#02A287"/>
<path d="M100.552 178.042H93.1699V153.603C93.1699 147.309 89.9062 140.955 82.6123 140.955V133.573C93.1759 133.573 100.552 141.809 100.552 153.603V178.042Z" fill="#02A287"/>
</g>
<defs>
<clipPath id="clip0_5_9384">
<rect width="150" height="150" fill="white"/>
</clipPath>
</defs>
</svg>
